<svg width="1920" height="1080" viewBox="0 0 1920 1080" fill="none" xmlns="http://www.w3.org/2000/svg">
<g clip-path="url(#clip0_1_4)">
<path d="M1118.4 190.391C1154.38 190.391 1183.55 167.83 1183.55 140C1183.55 112.17 1154.38 89.6088 1118.4 89.6088C1082.41 89.6088 1053.24 112.17 1053.24 140C1053.24 167.83 1082.41 190.391 1118.4 190.391Z" fill="#ECECEC"/>
<path d="M1623.83 938.256C1720.67 881.206 1766.93 785.339 1737.97 693.889C1737.25 691.616 1736.49 689.349 1735.69 687.087C1716.49 632.803 1669 581.211 1599.77 563.866C1541.65 549.302 1478.2 560.501 1417.56 554.71C1298.53 543.34 1206.24 468.851 1141.31 390.859C1076.37 312.867 1026.47 225.566 940.181 161.134C797.954 54.9272 565.947 32.0609 389.606 101.193C213.266 170.326 100.939 323.702 105.729 476.561C110.52 629.419 227.852 775.563 398.248 853.101C460.845 881.586 533.243 901.765 605.295 894.704C667.813 888.577 724.619 862.596 786.843 854.883C884.673 842.756 981.88 876.966 1066.5 916.83C1151.11 956.695 1232.85 1003.95 1329 1022.43C1422.37 1040.37 1538.04 988.793 1623.83 938.256Z" fill="#456379"/>
<path d="M1484.68 104.403C1482.56 103.309 1480.41 102.271 1478.29 101.214C1416.92 70.8586 1351.14 46.1984 1282.32 27.7427L1266.36 198.011H1165.19V2.88743C1158.82 1.86831 1152.4 0.905809 1145.98 -7.62939e-05V198.011H1025.75C959.566 198.011 896.09 177.676 849.288 141.48C802.487 105.284 776.194 56.1908 776.194 5.00139V5.00121C769.752 6.07695 763.359 7.22818 756.965 8.4549V198.011H659.04L643.837 35.6503C573.107 56.6297 505.959 84.2186 443.887 117.803C442.814 118.369 441.74 118.954 440.691 119.52C435.298 122.445 429.978 125.427 424.683 128.447V778.023H713.286L708.186 723.387L680.123 423.407H1245.25L1217.19 723.387L1212.09 778.023H1497.49V110.971C1493.25 108.744 1488.98 106.555 1484.68 104.403ZM756.965 373.866H675.487L660.431 212.883H756.965V373.866ZM1145.98 373.866H1009.14V370.677C1009.14 369.144 1008.75 367.626 1007.99 366.209C1007.23 364.793 1006.11 363.506 1004.71 362.423C1003.31 361.34 1001.64 360.481 999.81 359.896C997.977 359.311 996.013 359.011 994.031 359.014H934.539C932.558 359.013 930.597 359.314 928.767 359.9C926.937 360.486 925.274 361.345 923.874 362.428C922.473 363.512 921.362 364.798 920.605 366.213C919.847 367.628 919.458 369.145 919.458 370.677V373.866H776.194V212.883H1145.98V373.866ZM1165.19 373.866V212.883H1264.97L1249.91 373.866H1165.19Z" fill="#3F3D56"/>
<path d="M-4.57764e-05 819.62C21.1986 839.047 44.1274 857.303 68.6185 874.256L1851.38 876.144C1875.87 859.191 1898.8 840.934 1920 821.508L-4.57764e-05 819.62Z" fill="#3F3D56"/>
<path d="M1208.95 644.672V806.418C1208.95 808.479 1210.01 810.456 1211.9 811.913C1213.78 813.371 1216.34 814.19 1219 814.192H1528.92C1531.58 814.19 1534.14 813.371 1536.02 811.913C1537.91 810.456 1538.97 808.479 1538.97 806.418V644.672C1538.96 642.613 1537.9 640.639 1536.02 639.184C1534.13 637.728 1531.58 636.91 1528.92 636.907H1219C1216.34 636.91 1213.78 637.728 1211.9 639.184C1210.02 640.639 1208.96 642.613 1208.95 644.672V644.672Z" fill="#3F3D56"/>
<path d="M1216.22 646.685V804.423C1216.22 805.524 1216.79 806.58 1217.8 807.358C1218.8 808.137 1220.17 808.575 1221.59 808.577H1526.34C1527.76 808.575 1529.13 808.137 1530.13 807.358C1531.14 806.58 1531.71 805.524 1531.71 804.423V646.685C1531.71 645.582 1531.14 644.524 1530.14 643.744C1529.13 642.963 1527.76 642.524 1526.34 642.521H1221.59C1220.17 642.524 1218.8 642.963 1217.79 643.744C1216.79 644.524 1216.22 645.582 1216.22 646.685V646.685Z" fill="#6C63FF"/>
<path d="M1202.47 837.963C1203.04 838.513 1203.76 838.957 1204.58 839.261C1205.4 839.565 1206.3 839.721 1207.21 839.718H1539.06C1539.97 839.717 1540.86 839.559 1541.68 839.257C1542.5 838.955 1543.22 838.515 1543.79 837.97C1544.36 837.425 1544.77 836.788 1544.99 836.106C1545.2 835.424 1545.21 834.713 1545.03 834.026L1539.88 815.102C1539.66 814.331 1539.2 813.612 1538.54 813.013C1537.87 812.414 1537.03 811.953 1536.07 811.671C1535.38 811.462 1534.65 811.355 1533.91 811.355H1212.34C1211.6 811.355 1210.86 811.462 1210.17 811.671C1209.22 811.953 1208.37 812.414 1207.71 813.013C1207.05 813.612 1206.59 814.33 1206.37 815.102L1201.22 834.026C1201.04 834.713 1201.05 835.422 1201.27 836.103C1201.49 836.784 1201.89 837.419 1202.47 837.963V837.963Z" fill="#2F2E41"/>
<path d="M1522.52 819.506H1530.36C1531.02 819.506 1531.55 819.094 1531.55 818.585V815.685C1531.55 815.176 1531.02 814.763 1530.36 814.763H1522.52C1521.86 814.763 1521.33 815.176 1521.33 815.685V818.585C1521.33 819.094 1521.86 819.506 1522.52 819.506Z" fill="#3F3D56"/>
<path d="M1502.08 819.506H1509.92C1510.57 819.506 1511.11 819.094 1511.11 818.585V815.685C1511.11 815.176 1510.57 814.763 1509.92 814.763H1502.08C1501.42 814.763 1500.89 815.176 1500.89 815.685V818.585C1500.89 819.094 1501.42 819.506 1502.08 819.506Z" fill="#3F3D56"/>
<path d="M1481.64 819.506H1489.48C1490.13 819.506 1490.67 819.094 1490.67 818.585V815.685C1490.67 815.176 1490.13 814.763 1489.48 814.763H1481.64C1480.98 814.763 1480.45 815.176 1480.45 815.685V818.585C1480.45 819.094 1480.98 819.506 1481.64 819.506Z" fill="#3F3D56"/>
<path d="M1461.2 819.506H1469.03C1469.69 819.506 1470.23 819.094 1470.23 818.585V815.685C1470.23 815.176 1469.69 814.763 1469.03 814.763H1461.2C1460.54 814.763 1460 815.176 1460 815.685V818.585C1460 819.094 1460.54 819.506 1461.2 819.506Z" fill="#3F3D56"/>
<path d="M1440.75 819.506H1448.59C1449.25 819.506 1449.78 819.094 1449.78 818.585V815.685C1449.78 815.176 1449.25 814.763 1448.59 814.763H1440.75C1440.1 814.763 1439.56 815.176 1439.56 815.685V818.585C1439.56 819.094 1440.1 819.506 1440.75 819.506Z" fill="#3F3D56"/>
<path d="M1420.31 819.506H1428.15C1428.81 819.506 1429.34 819.094 1429.34 818.585V815.685C1429.34 815.176 1428.81 814.763 1428.15 814.763H1420.31C1419.65 814.763 1419.12 815.176 1419.12 815.685V818.585C1419.12 819.094 1419.65 819.506 1420.31 819.506Z" fill="#3F3D56"/>
<path d="M1399.87 819.506H1407.71C1408.37 819.506 1408.9 819.094 1408.9 818.585V815.685C1408.9 815.176 1408.37 814.763 1407.71 814.763H1399.87C1399.21 814.763 1398.68 815.176 1398.68 815.685V818.585C1398.68 819.094 1399.21 819.506 1399.87 819.506Z" fill="#3F3D56"/>
<path d="M1379.43 819.506H1387.27C1387.93 819.506 1388.46 819.094 1388.46 818.585V815.685C1388.46 815.176 1387.93 814.763 1387.27 814.763H1379.43C1378.77 814.763 1378.24 815.176 1378.24 815.685V818.585C1378.24 819.094 1378.77 819.506 1379.43 819.506Z" fill="#3F3D56"/>
<path d="M1358.99 819.506H1366.83C1367.48 819.506 1368.02 819.094 1368.02 818.585V815.685C1368.02 815.176 1367.48 814.763 1366.83 814.763H1358.99C1358.33 814.763 1357.8 815.176 1357.8 815.685V818.585C1357.8 819.094 1358.33 819.506 1358.99 819.506Z" fill="#3F3D56"/>
<path d="M1338.55 819.506H1346.38C1347.04 819.506 1347.58 819.094 1347.58 818.585V815.685C1347.58 815.176 1347.04 814.763 1346.38 814.763H1338.55C1337.89 814.763 1337.36 815.176 1337.36 815.685V818.585C1337.36 819.094 1337.89 819.506 1338.55 819.506Z" fill="#3F3D56"/>
<path d="M1318.1 819.506H1325.94C1326.6 819.506 1327.13 819.094 1327.13 818.585V815.685C1327.13 815.176 1326.6 814.763 1325.94 814.763H1318.1C1317.45 814.763 1316.91 815.176 1316.91 815.685V818.585C1316.91 819.094 1317.45 819.506 1318.1 819.506Z" fill="#3F3D56"/>
<path d="M1297.66 819.506H1305.5C1306.16 819.506 1306.69 819.094 1306.69 818.585V815.685C1306.69 815.176 1306.16 814.763 1305.5 814.763H1297.66C1297.01 814.763 1296.47 815.176 1296.47 815.685V818.585C1296.47 819.094 1297.01 819.506 1297.66 819.506Z" fill="#3F3D56"/>
<path d="M1277.22 819.506H1285.06C1285.72 819.506 1286.25 819.094 1286.25 818.585V815.685C1286.25 815.176 1285.72 814.763 1285.06 814.763H1277.22C1276.56 814.763 1276.03 815.176 1276.03 815.685V818.585C1276.03 819.094 1276.56 819.506 1277.22 819.506Z" fill="#3F3D56"/>
<path d="M1256.78 819.506H1264.62C1265.28 819.506 1265.81 819.094 1265.81 818.585V815.685C1265.81 815.176 1265.28 814.763 1264.62 814.763H1256.78C1256.12 814.763 1255.59 815.176 1255.59 815.685V818.585C1255.59 819.094 1256.12 819.506 1256.78 819.506Z" fill="#3F3D56"/>
<path d="M1236.34 819.506H1244.18C1244.84 819.506 1245.37 819.094 1245.37 818.585V815.685C1245.37 815.176 1244.84 814.763 1244.18 814.763H1236.34C1235.68 814.763 1235.15 815.176 1235.15 815.685V818.585C1235.15 819.094 1235.68 819.506 1236.34 819.506Z" fill="#3F3D56"/>
<path d="M1215.9 819.506H1223.74C1224.39 819.506 1224.93 819.094 1224.93 818.585V815.685C1224.93 815.176 1224.39 814.763 1223.74 814.763H1215.9C1215.24 814.763 1214.71 815.176 1214.71 815.685V818.585C1214.71 819.094 1215.24 819.506 1215.9 819.506Z" fill="#3F3D56"/>
<path d="M1522.76 827.411H1530.6C1531.26 827.411 1531.79 826.999 1531.79 826.49V823.59C1531.79 823.081 1531.26 822.668 1530.6 822.668H1522.76C1522.1 822.668 1521.57 823.081 1521.57 823.59V826.49C1521.57 826.999 1522.1 827.411 1522.76 827.411Z" fill="#3F3D56"/>
<path d="M1502.32 827.411H1510.16C1510.82 827.411 1511.35 826.999 1511.35 826.49V823.59C1511.35 823.081 1510.82 822.668 1510.16 822.668H1502.32C1501.66 822.668 1501.13 823.081 1501.13 823.59V826.49C1501.13 826.999 1501.66 827.411 1502.32 827.411Z" fill="#3F3D56"/>
<path d="M1481.88 827.411H1489.72C1490.37 827.411 1490.91 826.999 1490.91 826.49V823.59C1490.91 823.081 1490.37 822.668 1489.72 822.668H1481.88C1481.22 822.668 1480.69 823.081 1480.69 823.59V826.49C1480.69 826.999 1481.22 827.411 1481.88 827.411Z" fill="#3F3D56"/>
<path d="M1461.44 827.411H1469.28C1469.93 827.411 1470.47 826.999 1470.47 826.49V823.59C1470.47 823.081 1469.93 822.668 1469.28 822.668H1461.44C1460.78 822.668 1460.25 823.081 1460.25 823.59V826.49C1460.25 826.999 1460.78 827.411 1461.44 827.411Z" fill="#3F3D56"/>
<path d="M1441 827.411H1448.83C1449.49 827.411 1450.03 826.999 1450.03 826.49V823.59C1450.03 823.081 1449.49 822.668 1448.83 822.668H1441C1440.34 822.668 1439.8 823.081 1439.8 823.59V826.49C1439.8 826.999 1440.34 827.411 1441 827.411Z" fill="#3F3D56"/>
<path d="M1420.55 827.411H1428.39C1429.05 827.411 1429.58 826.999 1429.58 826.49V823.59C1429.58 823.081 1429.05 822.668 1428.39 822.668H1420.55C1419.9 822.668 1419.36 823.081 1419.36 823.59V826.49C1419.36 826.999 1419.9 827.411 1420.55 827.411Z" fill="#3F3D56"/>
<path d="M1400.11 827.411H1407.95C1408.61 827.411 1409.14 826.999 1409.14 826.49V823.59C1409.14 823.081 1408.61 822.668 1407.95 822.668H1400.11C1399.45 822.668 1398.92 823.081 1398.92 823.59V826.49C1398.92 826.999 1399.45 827.411 1400.11 827.411Z" fill="#3F3D56"/>
<path d="M1379.67 827.411H1387.51C1388.17 827.411 1388.7 826.999 1388.7 826.49V823.59C1388.7 823.081 1388.17 822.668 1387.51 822.668H1379.67C1379.01 822.668 1378.48 823.081 1378.48 823.59V826.49C1378.48 826.999 1379.01 827.411 1379.67 827.411Z" fill="#3F3D56"/>
<path d="M1359.23 827.411H1367.07C1367.73 827.411 1368.26 826.999 1368.26 826.49V823.59C1368.26 823.081 1367.73 822.668 1367.07 822.668H1359.23C1358.57 822.668 1358.04 823.081 1358.04 823.59V826.49C1358.04 826.999 1358.57 827.411 1359.23 827.411Z" fill="#3F3D56"/>
<path d="M1338.79 827.411H1346.63C1347.28 827.411 1347.82 826.999 1347.82 826.49V823.59C1347.82 823.081 1347.28 822.668 1346.63 822.668H1338.79C1338.13 822.668 1337.6 823.081 1337.6 823.59V826.49C1337.6 826.999 1338.13 827.411 1338.79 827.411Z" fill="#3F3D56"/>
<path d="M1318.35 827.411H1326.18C1326.84 827.411 1327.38 826.999 1327.38 826.49V823.59C1327.38 823.081 1326.84 822.668 1326.18 822.668H1318.35C1317.69 822.668 1317.16 823.081 1317.16 823.59V826.49C1317.16 826.999 1317.69 827.411 1318.35 827.411Z" fill="#3F3D56"/>
<path d="M1297.91 827.411H1305.74C1306.4 827.411 1306.93 826.999 1306.93 826.49V823.59C1306.93 823.081 1306.4 822.668 1305.74 822.668H1297.91C1297.25 822.668 1296.71 823.081 1296.71 823.59V826.49C1296.71 826.999 1297.25 827.411 1297.91 827.411Z" fill="#3F3D56"/>
<path d="M1277.46 827.411H1285.3C1285.96 827.411 1286.49 826.999 1286.49 826.49V823.59C1286.49 823.081 1285.96 822.668 1285.3 822.668H1277.46C1276.81 822.668 1276.27 823.081 1276.27 823.59V826.49C1276.27 826.999 1276.81 827.411 1277.46 827.411Z" fill="#3F3D56"/>
<path d="M1257.02 827.411H1264.86C1265.52 827.411 1266.05 826.999 1266.05 826.49V823.59C1266.05 823.081 1265.52 822.668 1264.86 822.668H1257.02C1256.36 822.668 1255.83 823.081 1255.83 823.59V826.49C1255.83 826.999 1256.36 827.411 1257.02 827.411Z" fill="#3F3D56"/>
<path d="M1236.58 827.411H1244.42C1245.08 827.411 1245.61 826.999 1245.61 826.49V823.59C1245.61 823.081 1245.08 822.668 1244.42 822.668H1236.58C1235.92 822.668 1235.39 823.081 1235.39 823.59V826.49C1235.39 826.999 1235.92 827.411 1236.58 827.411Z" fill="#3F3D56"/>
<path d="M1216.14 827.411H1223.98C1224.64 827.411 1225.17 826.999 1225.17 826.49V823.59C1225.17 823.081 1224.64 822.668 1223.98 822.668H1216.14C1215.48 822.668 1214.95 823.081 1214.95 823.59V826.49C1214.95 826.999 1215.48 827.411 1216.14 827.411Z" fill="#3F3D56"/>
<path d="M1353.1 836.897H1432.48C1433.14 836.897 1433.67 836.484 1433.67 835.975V833.075C1433.67 832.566 1433.14 832.154 1432.48 832.154H1353.1C1352.44 832.154 1351.91 832.566 1351.91 833.075V835.975C1351.91 836.484 1352.44 836.897 1353.1 836.897Z" fill="#3F3D56"/>
<path d="M1268.99 677.031H1262.05C1259.95 677.031 1258.24 678.35 1258.24 679.977C1258.24 681.604 1259.95 682.923 1262.05 682.923H1268.99C1271.1 682.923 1272.8 681.604 1272.8 679.977C1272.8 678.35 1271.1 677.031 1268.99 677.031Z" fill="white"/>
<path d="M1348.36 677.031H1341.42C1339.31 677.031 1337.61 678.35 1337.61 679.977C1337.61 681.604 1339.31 682.923 1341.42 682.923H1348.36C1350.46 682.923 1352.16 681.604 1352.16 679.977C1352.16 678.35 1350.46 677.031 1348.36 677.031Z" fill="white"/>
<path d="M1370.84 677.031H1363.9C1361.8 677.031 1360.09 678.35 1360.09 679.977C1360.09 681.604 1361.8 682.923 1363.9 682.923H1370.84C1372.95 682.923 1374.65 681.604 1374.65 679.977C1374.65 678.35 1372.95 677.031 1370.84 677.031Z" fill="white"/>
<path d="M1326.77 676.539H1283.64C1281.54 676.539 1279.83 677.858 1279.83 679.486C1279.83 681.113 1281.54 682.432 1283.64 682.432H1326.77C1328.87 682.432 1330.58 681.113 1330.58 679.486C1330.58 677.858 1328.87 676.539 1326.77 676.539Z" fill="white"/>
<path d="M1432.59 676.539H1389.46C1387.35 676.539 1385.65 677.858 1385.65 679.486C1385.65 681.113 1387.35 682.432 1389.46 682.432H1432.59C1434.69 682.432 1436.39 681.113 1436.39 679.486C1436.39 677.858 1434.69 676.539 1432.59 676.539Z" fill="white"/>
<path d="M1290.16 690.33H1283.22C1281.11 690.33 1279.41 691.649 1279.41 693.276C1279.41 694.903 1281.11 696.222 1283.22 696.222H1290.16C1292.26 696.222 1293.97 694.903 1293.97 693.276C1293.97 691.649 1292.26 690.33 1290.16 690.33Z" fill="white"/>
<path d="M1369.52 690.33H1362.58C1360.48 690.33 1358.77 691.649 1358.77 693.276C1358.77 694.903 1360.48 696.222 1362.58 696.222H1369.52C1371.62 696.222 1373.33 694.903 1373.33 693.276C1373.33 691.649 1371.62 690.33 1369.52 690.33Z" fill="white"/>
<path d="M1392 690.33H1385.07C1382.96 690.33 1381.26 691.649 1381.26 693.276C1381.26 694.903 1382.96 696.222 1385.07 696.222H1392C1394.11 696.222 1395.81 694.903 1395.81 693.276C1395.81 691.649 1394.11 690.33 1392 690.33Z" fill="white"/>
<path d="M1347.93 689.838H1304.8C1302.7 689.838 1300.99 691.157 1300.99 692.785C1300.99 694.412 1302.7 695.731 1304.8 695.731H1347.93C1350.04 695.731 1351.74 694.412 1351.74 692.785C1351.74 691.157 1350.04 689.838 1347.93 689.838Z" fill="white"/>
<path d="M1453.75 689.838H1410.62C1408.52 689.838 1406.81 691.157 1406.81 692.785C1406.81 694.412 1408.52 695.731 1410.62 695.731H1453.75C1455.85 695.731 1457.56 694.412 1457.56 692.785C1457.56 691.157 1455.85 689.838 1453.75 689.838Z" fill="white"/>
<path d="M1311.32 703.628H1304.38C1302.28 703.628 1300.57 704.947 1300.57 706.574C1300.57 708.202 1302.28 709.521 1304.38 709.521H1311.32C1313.42 709.521 1315.13 708.202 1315.13 706.574C1315.13 704.947 1313.42 703.628 1311.32 703.628Z" fill="white"/>
<path d="M1390.68 703.628H1383.74C1381.64 703.628 1379.93 704.947 1379.93 706.574C1379.93 708.202 1381.64 709.521 1383.74 709.521H1390.68C1392.79 709.521 1394.49 708.202 1394.49 706.574C1394.49 704.947 1392.79 703.628 1390.68 703.628Z" fill="white"/>
<path d="M1413.17 703.628H1406.23C1404.13 703.628 1402.42 704.947 1402.42 706.574C1402.42 708.202 1404.13 709.521 1406.23 709.521H1413.17C1415.27 709.521 1416.98 708.202 1416.98 706.574C1416.98 704.947 1415.27 703.628 1413.17 703.628Z" fill="white"/>
<path d="M1369.1 703.137H1325.97C1323.86 703.137 1322.16 704.456 1322.16 706.083C1322.16 707.71 1323.86 709.029 1325.97 709.029H1369.1C1371.2 709.029 1372.9 707.71 1372.9 706.083C1372.9 704.456 1371.2 703.137 1369.1 703.137Z" fill="white"/>
<path d="M1474.91 703.137H1431.78C1429.68 703.137 1427.97 704.456 1427.97 706.083C1427.97 707.71 1429.68 709.029 1431.78 709.029H1474.91C1477.02 709.029 1478.72 707.71 1478.72 706.083C1478.72 704.456 1477.02 703.137 1474.91 703.137Z" fill="white"/>
<path d="M1332.48 716.927H1325.54C1323.44 716.927 1321.73 718.246 1321.73 719.873C1321.73 721.501 1323.44 722.82 1325.54 722.82H1332.48C1334.59 722.82 1336.29 721.501 1336.29 719.873C1336.29 718.246 1334.59 716.927 1332.48 716.927Z" fill="white"/>
<path d="M1411.85 716.927H1404.91C1402.8 716.927 1401.1 718.246 1401.1 719.873C1401.1 721.501 1402.8 722.82 1404.91 722.82H1411.85C1413.95 722.82 1415.65 721.501 1415.65 719.873C1415.65 718.246 1413.95 716.927 1411.85 716.927Z" fill="white"/>
<path d="M1434.33 716.927H1427.39C1425.29 716.927 1423.58 718.246 1423.58 719.873C1423.58 721.501 1425.29 722.82 1427.39 722.82H1434.33C1436.44 722.82 1438.14 721.501 1438.14 719.873C1438.14 718.246 1436.44 716.927 1434.33 716.927Z" fill="white"/>
<path d="M1390.26 716.436H1347.13C1345.03 716.436 1343.32 717.755 1343.32 719.382C1343.32 721.009 1345.03 722.328 1347.13 722.328H1390.26C1392.36 722.328 1394.07 721.009 1394.07 719.382C1394.07 717.755 1392.36 716.436 1390.26 716.436Z" fill="white"/>
<path d="M1348.36 769.809H1341.42C1339.31 769.809 1337.61 771.128 1337.61 772.755C1337.61 774.382 1339.31 775.702 1341.42 775.702H1348.36C1350.46 775.702 1352.16 774.382 1352.16 772.755C1352.16 771.128 1350.46 769.809 1348.36 769.809Z" fill="white"/>
<path d="M1370.84 769.809H1363.9C1361.8 769.809 1360.09 771.128 1360.09 772.755C1360.09 774.382 1361.8 775.702 1363.9 775.702H1370.84C1372.95 775.702 1374.65 774.382 1374.65 772.755C1374.65 771.128 1372.95 769.809 1370.84 769.809Z" fill="white"/>
<path d="M1432.59 770.3H1389.46C1387.35 770.3 1385.65 771.62 1385.65 773.247C1385.65 774.874 1387.35 776.193 1389.46 776.193H1432.59C1434.69 776.193 1436.39 774.874 1436.39 773.247C1436.39 771.62 1434.69 770.3 1432.59 770.3Z" fill="white"/>
<path d="M1268.99 769.809H1262.05C1259.95 769.809 1258.24 771.128 1258.24 772.755C1258.24 774.382 1259.95 775.702 1262.05 775.702H1268.99C1271.1 775.702 1272.8 774.382 1272.8 772.755C1272.8 771.128 1271.1 769.809 1268.99 769.809Z" fill="white"/>
<path d="M1326.77 770.3H1283.64C1281.54 770.3 1279.83 771.62 1279.83 773.247C1279.83 774.874 1281.54 776.193 1283.64 776.193H1326.77C1328.87 776.193 1330.58 774.874 1330.58 773.247C1330.58 771.62 1328.87 770.3 1326.77 770.3Z" fill="white"/>
<path d="M1290.16 756.51H1283.22C1281.11 756.51 1279.41 757.829 1279.41 759.457C1279.41 761.084 1281.11 762.403 1283.22 762.403H1290.16C1292.26 762.403 1293.97 761.084 1293.97 759.457C1293.97 757.829 1292.26 756.51 1290.16 756.51Z" fill="white"/>
<path d="M1369.52 756.51H1362.58C1360.48 756.51 1358.77 757.829 1358.77 759.457C1358.77 761.084 1360.48 762.403 1362.58 762.403H1369.52C1371.62 762.403 1373.33 761.084 1373.33 759.457C1373.33 757.829 1371.62 756.51 1369.52 756.51Z" fill="white"/>
<path d="M1392 756.51H1385.07C1382.96 756.51 1381.26 757.829 1381.26 759.457C1381.26 761.084 1382.96 762.403 1385.07 762.403H1392C1394.11 762.403 1395.81 761.084 1395.81 759.457C1395.81 757.829 1394.11 756.51 1392 756.51Z" fill="white"/>
<path d="M1347.93 757.002H1304.8C1302.7 757.002 1300.99 758.321 1300.99 759.948C1300.99 761.575 1302.7 762.894 1304.8 762.894H1347.93C1350.04 762.894 1351.74 761.575 1351.74 759.948C1351.74 758.321 1350.04 757.002 1347.93 757.002Z" fill="white"/>
<path d="M1311.32 743.211H1304.38C1302.28 743.211 1300.57 744.531 1300.57 746.158C1300.57 747.785 1302.28 749.104 1304.38 749.104H1311.32C1313.42 749.104 1315.13 747.785 1315.13 746.158C1315.13 744.531 1313.42 743.211 1311.32 743.211Z" fill="white"/>
<path d="M1390.68 743.211H1383.74C1381.64 743.211 1379.93 744.531 1379.93 746.158C1379.93 747.785 1381.64 749.104 1383.74 749.104H1390.68C1392.79 749.104 1394.49 747.785 1394.49 746.158C1394.49 744.531 1392.79 743.211 1390.68 743.211Z" fill="white"/>
<path d="M1413.17 743.211H1406.23C1404.13 743.211 1402.42 744.531 1402.42 746.158C1402.42 747.785 1404.13 749.104 1406.23 749.104H1413.17C1415.27 749.104 1416.98 747.785 1416.98 746.158C1416.98 744.531 1415.27 743.211 1413.17 743.211Z" fill="white"/>
<path d="M1369.1 743.703H1325.97C1323.86 743.703 1322.16 745.022 1322.16 746.649C1322.16 748.276 1323.86 749.595 1325.97 749.595H1369.1C1371.2 749.595 1372.9 748.276 1372.9 746.649C1372.9 745.022 1371.2 743.703 1369.1 743.703Z" fill="white"/>
<path d="M1332.48 729.913H1325.54C1323.44 729.913 1321.73 731.232 1321.73 732.859C1321.73 734.486 1323.44 735.805 1325.54 735.805H1332.48C1334.59 735.805 1336.29 734.486 1336.29 732.859C1336.29 731.232 1334.59 729.913 1332.48 729.913Z" fill="white"/>
<path d="M1411.85 729.913H1404.91C1402.8 729.913 1401.1 731.232 1401.1 732.859C1401.1 734.486 1402.8 735.805 1404.91 735.805H1411.85C1413.95 735.805 1415.65 734.486 1415.65 732.859C1415.65 731.232 1413.95 729.913 1411.85 729.913Z" fill="white"/>
<path d="M1434.33 729.913H1427.39C1425.29 729.913 1423.58 731.232 1423.58 732.859C1423.58 734.486 1425.29 735.805 1427.39 735.805H1434.33C1436.44 735.805 1438.14 734.486 1438.14 732.859C1438.14 731.232 1436.44 729.913 1434.33 729.913Z" fill="white"/>
<path d="M1390.26 730.404H1347.13C1345.03 730.404 1343.32 731.723 1343.32 733.35C1343.32 734.977 1345.03 736.296 1347.13 736.296H1390.26C1392.36 736.296 1394.07 734.977 1394.07 733.35C1394.07 731.723 1392.36 730.404 1390.26 730.404Z" fill="white"/>
<path d="M1232.1 925.667L1199.52 885.843L1301.77 822.803L1343.98 786.641C1349.46 781.943 1356.44 778.44 1364.22 776.482C1372.01 774.525 1380.32 774.181 1388.32 775.485C1396.33 776.79 1403.76 779.696 1409.86 783.915C1415.96 788.134 1420.52 793.517 1423.08 799.527C1426.89 808.432 1426.07 818.132 1420.8 826.58C1415.54 835.028 1406.23 841.562 1394.85 844.804L1328.11 863.819L1232.1 925.667Z" fill="#FFB6B6"/>
<path d="M467.762 636.914V830.472H643.091V636.914C643.094 635.522 642.52 634.166 641.452 633.045C640.385 631.924 638.881 631.098 637.161 630.687C636.351 630.479 635.501 630.377 634.648 630.385H476.23C475.119 630.383 474.019 630.551 472.993 630.878C471.966 631.205 471.033 631.686 470.246 632.292C469.46 632.899 468.836 633.619 468.409 634.412C467.983 635.205 467.763 636.056 467.762 636.914V636.914ZM536.186 703.422C536.231 699.606 538.223 695.958 541.728 693.272C545.233 690.587 549.968 689.08 554.902 689.08C559.836 689.08 564.57 690.587 568.075 693.272C571.58 695.958 573.573 699.606 573.618 703.422V725.88C573.593 729.706 571.61 733.369 568.103 736.068C564.596 738.767 559.849 740.282 554.902 740.282C549.955 740.282 545.208 738.767 541.701 736.068C538.194 733.369 536.211 729.706 536.186 725.88V703.422Z" fill="#2F2E41"/>
<path d="M467.226 824.282V842.947C467.23 843.914 467.726 844.841 468.608 845.526C469.49 846.211 470.685 846.6 471.935 846.608H638.918C640.17 846.603 641.368 846.216 642.25 845.529C643.133 844.843 643.628 843.915 643.628 842.947V824.282H467.226Z" fill="#3F3D56"/>
<path d="M191.946 345.295V698.703C191.951 703.207 194.266 707.525 198.384 710.71C202.501 713.895 208.085 715.685 213.908 715.689H891.064C896.888 715.685 902.471 713.895 906.589 710.71C910.706 707.525 913.022 703.207 913.026 698.703V345.295C913.012 340.795 910.693 336.483 906.577 333.303C902.46 330.123 896.882 328.334 891.064 328.329H213.908C208.09 328.334 202.512 330.123 198.396 333.303C194.279 336.483 191.96 340.795 191.946 345.295Z" fill="#3F3D56"/>
<path d="M207.832 349.692V694.344C207.837 696.75 209.076 699.057 211.276 700.758C213.476 702.46 216.458 703.417 219.569 703.422H885.427C888.539 703.417 891.521 702.46 893.721 700.758C895.921 699.057 897.159 696.75 897.165 694.344V349.692C897.164 347.283 895.929 344.972 893.728 343.267C891.528 341.561 888.542 340.601 885.427 340.596H219.569C216.454 340.601 213.469 341.562 211.269 343.267C209.068 344.972 207.832 347.283 207.832 349.692Z" fill="#140202"/>
<path d="M331.404 845.344C332.082 846.001 332.943 846.531 333.924 846.894C334.904 847.257 335.978 847.443 337.065 847.439H733.208C734.291 847.437 735.36 847.25 736.338 846.889C737.316 846.528 738.177 846.003 738.86 845.352C739.542 844.702 740.029 843.941 740.284 843.127C740.538 842.313 740.555 841.465 740.333 840.644L734.184 818.054C733.929 817.133 733.38 816.275 732.587 815.56C731.795 814.845 730.783 814.294 729.645 813.959C728.821 813.709 727.944 813.581 727.058 813.581H343.19C342.305 813.58 341.427 813.709 340.603 813.959C339.465 814.294 338.454 814.845 337.661 815.56C336.868 816.275 336.319 817.133 336.065 818.054L329.915 840.644C329.697 841.464 329.717 842.311 329.974 843.124C330.232 843.937 330.72 844.695 331.404 845.344Z" fill="#2F2E41"/>
<path d="M863.818 388.073H240.778C240.13 388.062 239.514 387.855 239.061 387.497C238.608 387.139 238.354 386.658 238.354 386.157C238.354 385.656 238.608 385.175 239.061 384.817C239.514 384.458 240.13 384.252 240.778 384.24H863.818C864.466 384.252 865.082 384.458 865.535 384.817C865.988 385.175 866.242 385.656 866.242 386.157C866.242 386.658 865.988 387.139 865.535 387.497C865.082 387.855 864.466 388.062 863.818 388.073V388.073Z" fill="#3F3D56"/>
<path d="M283.189 374.457C291.208 374.457 297.709 369.317 297.709 362.976C297.709 356.636 291.208 351.496 283.189 351.496C275.169 351.496 268.668 356.636 268.668 362.976C268.668 369.317 275.169 374.457 283.189 374.457Z" fill="#3F3D56"/>
<path d="M333.35 374.457C341.369 374.457 347.87 369.317 347.87 362.976C347.87 356.636 341.369 351.496 333.35 351.496C325.33 351.496 318.829 356.636 318.829 362.976C318.829 369.317 325.33 374.457 333.35 374.457Z" fill="#3F3D56"/>
<path d="M383.51 374.457C391.53 374.457 398.031 369.317 398.031 362.976C398.031 356.636 391.53 351.496 383.51 351.496C375.491 351.496 368.99 356.636 368.99 362.976C368.99 369.317 375.491 374.457 383.51 374.457Z" fill="#3F3D56"/>
<path d="M833.613 354.335H797.986C797.282 354.348 796.612 354.573 796.12 354.963C795.627 355.352 795.352 355.876 795.352 356.42C795.352 356.965 795.627 357.488 796.12 357.878C796.612 358.268 797.282 358.493 797.986 358.506H833.613C834.322 358.498 834.998 358.275 835.495 357.885C835.993 357.494 836.272 356.968 836.272 356.42C836.272 355.872 835.993 355.346 835.495 354.956C834.998 354.566 834.322 354.343 833.613 354.335Z" fill="#3F3D56"/>
<path d="M833.613 362.167H797.986C797.281 362.179 796.611 362.404 796.118 362.794C795.625 363.184 795.349 363.707 795.349 364.253C795.349 364.798 795.625 365.321 796.118 365.711C796.611 366.101 797.281 366.326 797.986 366.338H833.613C834.323 366.331 835 366.109 835.499 365.718C835.998 365.328 836.277 364.801 836.277 364.253C836.277 363.704 835.998 363.177 835.499 362.787C835 362.396 834.323 362.174 833.613 362.167V362.167Z" fill="#3F3D56"/>
<path d="M833.613 369.999H797.986C797.282 370.012 796.612 370.237 796.12 370.627C795.627 371.017 795.352 371.54 795.352 372.085C795.352 372.629 795.627 373.153 796.12 373.542C796.612 373.932 797.282 374.157 797.986 374.17H833.613C834.322 374.162 834.998 373.939 835.495 373.549C835.993 373.159 836.272 372.633 836.272 372.085C836.272 371.537 835.993 371.01 835.495 370.62C834.998 370.23 834.322 370.007 833.613 369.999V369.999Z" fill="#3F3D56"/>
<path d="M1692.51 832.473C1693.59 834.894 1695.63 836.989 1698.34 838.458C1701.05 839.927 1704.29 840.693 1707.6 840.647L1772.25 839.36C1775.58 839.31 1778.8 838.427 1781.43 836.843C1784.06 835.259 1785.96 833.059 1786.84 830.571L1795.99 754.916C1799.24 756.054 1802.77 756.615 1806.33 756.56C1809.43 756.5 1812.48 755.969 1815.31 754.997C1818.14 754.026 1820.69 752.633 1822.82 750.898C1824.96 749.163 1826.63 747.119 1827.74 744.885C1828.85 742.65 1829.39 740.268 1829.31 737.875C1829.23 735.481 1828.54 733.122 1827.29 730.934C1826.03 728.745 1824.23 726.77 1821.99 725.12C1819.74 723.47 1817.1 722.177 1814.21 721.317C1811.32 720.456 1808.24 720.044 1805.15 720.104C1803.72 720.101 1802.3 720.215 1800.91 720.445C1799.4 719.178 1797.56 718.17 1795.51 717.487C1793.46 716.803 1791.25 716.459 1789.02 716.476L1689.58 718.462C1688.75 718.486 1687.93 718.565 1687.13 718.698C1684.94 719.012 1682.88 719.684 1681.06 720.669C1679.24 721.653 1677.72 722.927 1676.59 724.405C1675.47 725.883 1674.76 727.53 1674.53 729.236C1674.29 730.942 1674.53 732.667 1675.23 734.295L1692.51 832.473ZM1797.87 749.78L1804.38 731.751C1805.12 729.668 1805.13 727.472 1804.43 725.382C1804.74 725.382 1805.02 725.266 1805.34 725.265C1809.8 725.194 1814.12 726.494 1817.34 728.881C1820.57 731.269 1822.44 734.547 1822.54 737.999C1822.65 741.451 1820.98 744.794 1817.9 747.295C1814.82 749.796 1810.59 751.252 1806.13 751.342C1803.24 751.412 1800.38 750.871 1797.87 749.78Z" fill="#2F2E41"/>
<path d="M1687.13 718.698C1689.24 728.066 1713.06 734.652 1741.7 733.508C1768.04 732.569 1789.57 725.417 1793.52 716.94C1792.06 716.606 1790.54 716.45 1789.02 716.476L1689.58 718.462C1688.75 718.486 1687.93 718.565 1687.13 718.698V718.698Z" fill="#3F3D56"/>
<path d="M1746.95 790.9C1747.08 790.875 1747.21 790.832 1747.32 790.775L1761.36 783.668C1761.53 783.583 1761.67 783.466 1761.76 783.328C1761.86 783.19 1761.91 783.036 1761.91 782.879C1761.91 782.723 1761.86 782.568 1761.76 782.431C1761.67 782.293 1761.53 782.176 1761.36 782.09L1746.77 774.698C1746.63 774.63 1746.48 774.582 1746.33 774.559C1746.17 774.535 1746.01 774.536 1745.85 774.561C1745.69 774.586 1745.54 774.635 1745.41 774.705C1745.28 774.775 1745.16 774.864 1745.07 774.968C1744.99 775.072 1744.93 775.188 1744.9 775.31C1744.87 775.432 1744.87 775.557 1744.9 775.679C1744.93 775.8 1745 775.916 1745.09 776.018C1745.18 776.121 1745.3 776.208 1745.43 776.276L1758.46 782.878L1745.98 789.196C1745.74 789.318 1745.56 789.503 1745.48 789.717C1745.4 789.931 1745.42 790.161 1745.53 790.365C1745.65 790.569 1745.86 790.735 1746.12 790.833C1746.38 790.931 1746.67 790.955 1746.95 790.9H1746.95Z" fill="#6C63FF"/>
<path d="M1724.78 791.691C1725.01 791.645 1725.23 791.546 1725.39 791.406C1725.55 791.265 1725.65 791.091 1725.69 790.905C1725.72 790.719 1725.68 790.529 1725.57 790.36C1725.47 790.192 1725.3 790.052 1725.09 789.958L1712.15 784.22L1724.65 777.035C1724.78 776.961 1724.89 776.868 1724.97 776.762C1725.05 776.656 1725.11 776.538 1725.13 776.416C1725.16 776.293 1725.15 776.168 1725.11 776.048C1725.07 775.928 1725 775.815 1724.9 775.716C1724.81 775.616 1724.69 775.532 1724.55 775.469C1724.41 775.405 1724.26 775.363 1724.1 775.345C1723.94 775.327 1723.78 775.333 1723.63 775.364C1723.47 775.394 1723.33 775.447 1723.2 775.521L1709.19 783.566C1709.03 783.659 1708.9 783.782 1708.82 783.924C1708.73 784.066 1708.69 784.222 1708.7 784.379C1708.72 784.535 1708.78 784.687 1708.88 784.82C1708.99 784.953 1709.14 785.063 1709.31 785.141L1723.87 791.595C1724.15 791.717 1724.47 791.752 1724.78 791.691V791.691Z" fill="#6C63FF"/>
<path d="M1745.56 797.128C1745.67 797.105 1745.79 797.069 1745.89 797.019C1746.03 796.955 1746.15 796.87 1746.24 796.77C1746.34 796.67 1746.4 796.557 1746.44 796.436C1746.48 796.316 1746.49 796.191 1746.46 796.068C1746.44 795.946 1746.38 795.828 1746.3 795.722L1726.4 770.417C1726.23 770.204 1725.96 770.051 1725.64 769.992C1725.33 769.933 1725 769.974 1724.72 770.104C1724.44 770.234 1724.25 770.443 1724.17 770.686C1724.09 770.929 1724.14 771.186 1724.31 771.4L1744.21 796.705C1744.35 796.877 1744.55 797.011 1744.79 797.087C1745.04 797.163 1745.3 797.178 1745.56 797.128Z" fill="#6C63FF"/>
<path d="M626.74 492.249H518.906C514.507 492.249 510.941 495.007 510.941 498.409V506.557C510.941 509.96 514.507 512.718 518.906 512.718H626.74C631.14 512.718 634.706 509.96 634.706 506.557V498.409C634.706 495.007 631.14 492.249 626.74 492.249Z" fill="#6C63FF"/>
<path d="M689.596 533.186H456.05C451.651 533.186 448.085 535.944 448.085 539.347V547.495C448.085 550.897 451.651 553.655 456.05 553.655H689.596C693.996 553.655 697.562 550.897 697.562 547.495V539.347C697.562 535.944 693.996 533.186 689.596 533.186Z" fill="#E6E6E6"/>
<path d="M689.596 574.124H456.05C451.651 574.124 448.085 576.882 448.085 580.284V588.432C448.085 591.834 451.651 594.592 456.05 594.592H689.596C693.996 594.592 697.562 591.834 697.562 588.432V580.284C697.562 576.882 693.996 574.124 689.596 574.124Z" fill="#E6E6E6"/>
<path d="M709.394 711.207L709.923 712.498L709.951 712.541L725.874 749.981L744.19 793.126L778.653 874.205L778.987 886.799V886.842L781.548 988.159L774.449 1001.89L782.438 1024.41C782.438 1024.41 778.764 990.374 759.055 1009.92C747.893 1021.03 734.837 1032.4 724.12 1043.06C739.737 1047.94 755.604 1052.36 771.721 1056.32C775.201 1057.18 778.708 1058 782.216 1058.82C782.967 1058.99 783.719 1059.16 784.471 1059.33C837.898 1071.55 893.133 1078.42 948.82 1079.76C951.715 1079.83 954.555 1079.87 957.311 1079.91C958.285 1079.94 959.232 1079.96 960.178 1079.96C963.296 1079.98 966.386 1080 969.503 1080C975.794 1080 982.058 1079.93 988.293 1079.78C1034.45 1078.78 1080.33 1073.98 1125.17 1065.47C1124.86 1051.15 1124.03 1034.42 1122.83 1016.55C1122.27 1007.79 1109.77 998.297 1109.02 989.125C1108.49 982.236 1119.71 975.755 1119.13 968.758C1115.34 925.678 1110.61 942.216 1107.1 911.709C1106.74 908.716 1106.41 905.853 1106.1 903.119C1103.84 883.527 1102.29 871.277 1102.29 871.277L1117.26 798.271L1140.78 683.649L1138.98 681.346L1136.94 680.571L1012.87 633.077L1006.14 619.729C1004.17 615.883 1000.77 612.58 996.358 610.243C991.948 607.907 986.735 606.644 981.39 606.618L899.66 606.359C895.419 606.344 891.234 607.112 887.453 608.599C883.672 610.085 880.404 612.248 877.919 614.906L855.789 638.61L709.394 711.207Z" fill="#3F3D56"/>
<path d="M797.499 856.163L778.987 886.799L766.349 907.726L744.608 995.759L733.724 1004.69L724.399 973.064L626.796 989.825C623.595 976.068 625.939 990.29 623.962 975.198C624.519 974.768 625.104 974.337 625.688 973.907C627.247 972.787 628.556 971.732 628.528 970.72C627.414 918.663 630.755 830.07 658.647 776.397C663.016 767.634 668.776 759.324 675.795 751.66C676.352 751.079 676.881 750.497 677.41 749.916C690.27 735.987 698.399 722.273 709.923 712.52V712.499C709.995 712.454 710.06 712.403 710.118 712.348C710.16 712.332 710.198 712.31 710.229 712.283L789.398 679.817L792.794 753.619L795.216 806.667L797.499 856.163Z" fill="#3F3D56"/>
<path d="M1082.97 864.865L1106.09 903.129L1114.16 916.455L1135.89 1004.48L1146.74 1013.39L1156.09 981.771L1160.48 981.074L1239.69 968.387L1262.77 1025.09C1267.98 1018.39 1270.03 1010.5 1268.58 1002.76C1267.13 995.02 1262.26 987.906 1254.81 982.619C1253.24 981.515 1251.92 980.441 1251.96 979.425C1253.28 918.197 1248.43 806.394 1204.7 760.378C1190.81 745.775 1182.48 731.23 1170.35 721.069C1170.32 721.04 1170.32 721.011 1170.28 721.011L1140.77 683.647L1138.97 681.353L1136.94 680.569L1082.97 864.865Z" fill="#3F3D56"/>
<path d="M942.886 588.37C1002.94 588.37 1051.62 550.721 1051.62 504.277C1051.62 457.834 1002.94 420.184 942.886 420.184C882.835 420.184 834.154 457.834 834.154 504.277C834.154 550.721 882.835 588.37 942.886 588.37Z" fill="#FFB6B6"/>
<path d="M1089.85 445.539C1089.01 444.842 1087.99 444.284 1086.86 443.899C1085.73 443.513 1084.52 443.307 1083.28 443.293L1084.92 439.782C1085.45 438.677 1085.6 437.481 1085.34 436.318C1085.08 435.155 1084.42 434.067 1083.44 433.164C1082.45 432.262 1081.18 431.578 1079.74 431.182C1078.3 430.786 1076.76 430.693 1075.26 430.912L1069.3 431.799L1069.86 428.723C1070.08 427.577 1069.9 426.408 1069.36 425.33C1068.81 424.252 1067.91 423.303 1066.75 422.575C1065.58 421.848 1064.19 421.368 1062.72 421.182C1061.24 420.995 1059.72 421.11 1058.32 421.514C1057.05 421.902 1055.67 422.065 1054.3 421.99C1052.94 421.915 1051.61 421.604 1050.41 421.08C1049.22 420.572 1048.18 419.868 1047.37 419.017C1046.56 418.166 1046 417.189 1045.73 416.154L1043.66 408.416L1043.44 408.001C1033.33 394.979 1013.91 385.505 990.142 382.032C968.985 378.918 947.292 380.503 926.38 381.994C918.083 382.598 908.713 383.278 900.904 386.977C894.267 390.147 888.654 396.489 889.801 402.886C869.181 397.998 847.073 407.756 836.117 420.06C823.135 434.706 821.012 453.05 820.67 467.393C819.743 501.326 828.796 529.088 847.512 549.923C848.879 551.433 849.22 554.585 851.929 555.641L851.368 554.943C854.394 556.113 857.468 558 856.321 560.02C853.027 565.833 874.916 578.685 890.338 582.931C918.473 590.688 955.882 590.027 982.187 587.234L983.114 582.422C992.607 581.421 999.293 579.515 1001.17 576.533C1004.49 574.344 1007.32 572.381 1009.79 570.57L1009.81 570.551C1009.86 570.513 1009.96 570.456 1010.01 570.419C1021.89 561.605 1024.65 556.585 1025.89 548.942C1027.09 541.449 1024.96 533.844 1022.79 526.993C1068.52 532.466 1004.78 489.323 1047.39 480.981C1047.88 480.865 1048.37 480.77 1048.88 480.698C1050.12 480.472 1051.37 480.245 1052.56 479.981C1058.33 478.771 1063.84 476.948 1068.96 474.565C1080.87 468.96 1084.8 461.524 1090.95 453.144C1091.83 451.951 1092.21 450.57 1092.01 449.202C1091.81 447.834 1091.05 446.551 1089.85 445.539V445.539Z" fill="#2F2E41"/>
<path d="M1327.45 870.852C1327.43 874.155 1327.38 878.778 1327.18 884.497C1327.16 885.289 1327.13 886.101 1327.11 886.931C1326.79 897.443 1326.48 906.257 1325.96 916.052C1325.94 916.731 1325.91 917.392 1325.87 918.071C1325.18 931.735 1324.11 947.644 1322.25 972.839C1318.81 1019.38 1312.81 979.237 1306.78 995.562C1306.49 996.374 1306.17 997.336 1305.88 998.468C1304.97 1002.58 1303.43 1006.59 1301.29 1010.41C1298.1 1011.89 1294.8 1013.3 1291.56 1014.72C1282.31 1018.7 1272.91 1022.53 1263.44 1026.17C1258.13 1028.21 1252.78 1030.21 1247.41 1032.14C1246.56 1032.44 1245.73 1032.74 1244.9 1033.02C1217.41 1042.86 1189.08 1051.22 1160.1 1058.05C1154.44 1059.37 1148.8 1060.65 1143.09 1061.84C1137.14 1063.13 1131.19 1064.33 1125.16 1065.47C1080.32 1073.98 1034.44 1078.78 988.288 1079.79C982.065 1079.94 975.794 1080 969.498 1080C966.375 1080 963.3 1079.98 960.177 1079.96C959.225 1079.96 958.273 1079.94 957.322 1079.92C954.564 1079.87 951.709 1079.83 948.83 1079.77C893.141 1078.43 837.907 1071.56 784.482 1059.33L782.213 1058.82C778.699 1057.99 775.209 1057.18 771.72 1056.31C755.614 1052.37 739.745 1047.95 724.111 1043.06C712.179 1039.35 700.384 1035.36 688.728 1031.1C688.622 1031.08 688.522 1031.04 688.435 1030.99C685.995 1030.12 683.531 1029.21 681.091 1028.29C680.773 1028.16 680.432 1028.02 680.09 1027.89C670.988 1024.46 661.984 1020.86 653.077 1017.1C645.586 1003.79 635.044 1001.24 628.504 989.542C626.601 986.065 625.225 982.43 624.405 978.709C624.405 978.671 624.38 978.633 624.38 978.577C625.063 985.597 621.476 966.121 624.356 978.501C624.331 978.275 624.307 978.029 624.283 977.746C624.209 977.067 624.112 976.236 623.966 975.199C615.596 911.994 616.132 839.712 612.497 780.15C612.252 776.3 612 772.614 611.74 769.091C611.667 767.921 611.569 766.769 611.472 765.637C611.642 765.297 611.838 764.939 612.057 764.599C612.104 764.501 612.161 764.406 612.228 764.316C612.3 764.199 612.381 764.085 612.472 763.976C612.521 763.92 612.594 763.844 612.643 763.787C612.679 763.723 612.719 763.66 612.765 763.599C612.984 763.335 613.228 763.051 613.497 762.787C613.619 762.674 613.717 762.579 613.839 762.485C613.923 762.389 614.021 762.3 614.131 762.221C614.206 762.13 614.297 762.048 614.4 761.976C614.497 761.9 614.595 761.806 614.717 761.712C614.769 761.652 614.835 761.601 614.912 761.561C615.105 761.389 615.318 761.231 615.547 761.089C616.417 760.469 617.347 759.901 618.329 759.39C618.67 759.22 619.036 759.051 619.378 758.862C621.837 757.724 624.426 756.764 627.113 755.993C628.041 755.729 628.968 755.484 629.968 755.219C630.334 755.144 630.676 755.05 631.042 754.955C631.579 754.823 632.116 754.691 632.677 754.597C635.459 753.955 638.46 753.408 641.706 752.898C642.096 752.841 642.511 752.785 642.926 752.709C643.511 752.615 644.121 752.539 644.732 752.464C645.561 752.351 646.415 752.238 647.269 752.124C654.517 751.237 662.74 750.577 671.818 750.143C672.672 750.105 673.526 750.067 674.38 750.029C675.38 749.992 676.381 749.954 677.406 749.916C678.26 749.878 679.138 749.86 680.017 749.841C680.871 749.803 681.749 749.784 682.652 749.765C685.117 749.709 687.655 749.652 690.241 749.614C697.611 749.501 705.371 749.539 713.521 749.671C717.303 749.746 721.159 749.822 725.112 749.954C725.38 749.954 725.624 749.973 725.868 749.973C729.309 750.067 732.774 750.18 736.337 750.331C738.826 750.426 741.339 750.52 743.852 750.633C746.219 750.747 748.611 750.86 751.027 750.992C752.906 751.067 754.784 751.181 756.688 751.275C758.298 751.369 759.909 751.464 761.52 751.539L763.716 751.652C764.911 751.728 766.107 751.785 767.327 751.879C770.011 752.049 772.696 752.219 775.429 752.389C778.137 752.577 780.895 752.766 783.652 752.955C786.41 753.143 789.191 753.351 791.973 753.559C792.266 753.578 792.535 753.596 792.803 753.615C795.341 753.823 797.879 754.012 800.441 754.219C801.026 754.257 801.636 754.295 802.222 754.351C804.665 754.541 807.155 754.763 809.621 754.966C810.377 755.029 811.13 755.09 811.889 755.154C813.82 755.317 815.724 755.458 817.668 755.635C820.231 755.861 822.842 756.069 825.379 756.333C827.356 756.503 829.333 756.673 831.309 756.861C834.408 757.144 837.556 757.446 840.704 757.767C841.9 757.88 843.095 757.994 844.291 758.126C853.271 758.994 862.348 759.956 871.572 760.957C885.555 762.485 899.757 764.146 914.056 765.939C928.38 767.732 942.786 769.626 957.272 771.62C960.933 772.129 964.593 772.639 968.278 773.167C969.937 773.412 971.596 773.658 973.256 773.903C976.086 774.299 978.917 774.715 981.748 775.13C984.578 775.545 987.409 775.96 990.24 776.394C993.607 776.904 996.999 777.413 1000.37 777.923C1022.55 781.32 1044.61 784.944 1066.13 788.737C1069.67 789.36 1073.21 790.002 1076.72 790.624C1083.75 791.889 1090.71 793.172 1097.61 794.474C1099.51 794.814 1101.39 795.173 1103.27 795.531C1107.95 796.437 1112.64 797.343 1117.25 798.268L1118.06 798.438C1121.45 799.079 1124.77 799.74 1128.09 800.419C1135.92 802.005 1143.62 803.609 1151.2 805.232C1156.22 806.307 1161.19 807.396 1166.1 808.497C1173.45 810.139 1180.65 811.799 1187.65 813.479C1189.38 813.894 1191.12 814.309 1192.83 814.706C1197.95 815.932 1203 817.178 1207.91 818.424C1211.81 819.405 1215.62 820.405 1219.37 821.406C1223.13 822.406 1226.82 823.406 1230.43 824.406C1232.75 825.048 1235.04 825.727 1237.33 826.369C1240.63 827.313 1243.87 828.256 1247.05 829.2C1248.02 829.483 1248.97 829.785 1249.93 830.068C1250.54 830.276 1251.12 830.445 1251.71 830.634C1252.85 830.993 1254.03 831.332 1255.15 831.691C1256.29 832.031 1257.42 832.389 1258.54 832.767C1259.64 833.107 1260.76 833.465 1261.83 833.824C1262.93 834.163 1264.01 834.522 1265.08 834.899C1265.98 835.183 1266.86 835.485 1267.71 835.787C1269.45 836.372 1271.18 836.957 1272.86 837.561C1273.69 837.863 1274.52 838.146 1275.35 838.447L1277.26 839.127C1277.52 839.24 1277.79 839.335 1278.06 839.429C1278.67 839.655 1279.31 839.901 1279.92 840.127C1281.33 840.637 1282.72 841.184 1284.09 841.694C1285.92 842.411 1287.7 843.128 1289.41 843.826C1291.14 844.543 1292.82 845.261 1294.44 845.959C1294.7 846.072 1294.95 846.185 1295.22 846.299C1295.58 846.449 1295.95 846.619 1296.31 846.77C1297.56 847.318 1298.75 847.884 1299.95 848.431C1302.29 849.545 1304.51 850.639 1306.59 851.734C1307.05 851.979 1307.49 852.224 1307.95 852.451C1309.49 853.3 1310.96 854.131 1312.32 854.98C1312.32 854.999 1312.32 854.999 1312.35 854.999C1312.81 855.263 1313.25 855.546 1313.69 855.81C1314.05 856.074 1314.44 856.301 1314.81 856.565C1316.08 857.414 1317.25 858.226 1318.32 859.056C1318.68 859.313 1319.03 859.584 1319.35 859.868C1319.49 859.959 1319.62 860.06 1319.74 860.17C1320.23 860.547 1320.67 860.925 1321.08 861.302C1321.15 861.354 1321.2 861.411 1321.25 861.472C1321.84 862 1322.38 862.529 1322.89 863.057C1323.13 863.322 1323.4 863.586 1323.62 863.85C1323.91 864.171 1324.21 864.511 1324.45 864.831C1324.67 865.096 1324.86 865.379 1325.06 865.643C1325.58 866.323 1326.02 867.037 1326.38 867.775C1326.65 868.276 1326.87 868.794 1327.04 869.323C1327.22 869.824 1327.36 870.335 1327.45 870.852V870.852Z" fill="#279AAA"/>
<path opacity="0.2" d="M1327.45 870.852C1327.43 874.155 1327.38 878.778 1327.18 884.497C1327.16 885.289 1327.11 886.101 1327.09 886.931C1326.84 894.952 1326.48 904.86 1325.96 916.052C1325.94 916.731 1325.91 917.392 1325.87 918.071C1325.18 931.735 1324.11 947.644 1322.25 972.839C1318.81 1019.38 1312.81 979.237 1306.78 995.562C1290.04 987.598 1271.69 979.256 1252.07 970.688C1248.54 969.14 1244.96 967.587 1241.36 966.026C1202.12 949.098 1158.3 931.357 1112.54 913.787C1110.74 913.089 1108.91 912.39 1107.1 911.711C1002.29 871.644 887.898 832.673 795.219 806.666C777.332 801.646 760.251 797.117 744.194 793.134C710.373 784.774 681.139 778.923 658.641 776.394C635.215 773.752 619.036 774.696 612.496 780.15C612.252 776.3 612 772.614 611.74 769.091C611.642 767.921 611.545 766.769 611.447 765.637C611.598 765.326 611.793 765.03 611.983 764.731C612.01 764.687 612.029 764.642 612.057 764.599C612.104 764.501 612.161 764.406 612.228 764.316C612.3 764.199 612.381 764.085 612.472 763.976C612.551 763.842 612.649 763.716 612.765 763.599C612.984 763.334 613.228 763.051 613.497 762.787C613.694 762.589 613.906 762.4 614.131 762.221C614.206 762.13 614.296 762.048 614.4 761.976C614.497 761.9 614.595 761.806 614.717 761.711C614.769 761.652 614.835 761.601 614.912 761.56C615.105 761.389 615.317 761.231 615.547 761.089C616.417 760.469 617.347 759.901 618.328 759.39C618.67 759.22 619.036 759.05 619.378 758.862C621.837 757.724 624.426 756.764 627.113 755.993C628.04 755.729 628.968 755.483 629.968 755.219C630.334 755.144 630.676 755.049 631.042 754.955C631.579 754.823 632.116 754.691 632.677 754.596C635.459 753.955 638.46 753.407 641.706 752.898C642.682 752.747 643.707 752.596 644.731 752.464C645.561 752.351 646.415 752.237 647.269 752.124C654.517 751.237 662.74 750.577 671.818 750.142C672.672 750.105 673.526 750.067 674.38 750.029C675.38 749.991 676.381 749.954 677.406 749.916C678.26 749.878 679.138 749.859 680.017 749.841C680.871 749.803 681.749 749.784 682.652 749.765C685.117 749.708 687.655 749.652 690.241 749.614C697.611 749.52 705.37 749.557 713.521 749.69C717.303 749.746 721.159 749.841 725.112 749.973C725.356 749.973 725.624 749.992 725.868 749.992C729.309 750.067 732.798 750.199 736.337 750.331C738.826 750.426 741.339 750.52 743.852 750.633C746.219 750.746 748.611 750.86 751.027 750.992C752.906 751.067 754.784 751.181 756.688 751.275C758.298 751.369 759.909 751.464 761.519 751.539C763.447 751.652 765.375 751.766 767.327 751.879C770.011 752.049 772.696 752.218 775.429 752.388C778.137 752.577 780.895 752.766 783.652 752.954C786.409 753.143 789.191 753.351 791.973 753.558C792.266 753.577 792.534 753.596 792.803 753.615C795.341 753.823 797.878 754.011 800.441 754.219C814.643 755.332 829.259 756.635 844.291 758.126C853.271 759.013 862.365 759.962 871.572 760.975C885.555 762.504 899.757 764.165 914.056 765.939C928.381 767.732 942.786 769.625 957.272 771.619C960.933 772.129 964.593 772.639 968.278 773.167C972.768 773.809 977.258 774.463 981.748 775.13C984.578 775.545 987.409 775.96 990.24 776.394C993.607 776.904 996.999 777.413 1000.37 777.923C1022.55 781.32 1044.61 784.944 1066.13 788.737C1069.67 789.36 1073.21 790.001 1076.72 790.624C1083.75 791.889 1090.71 793.172 1097.61 794.474C1099.51 794.833 1101.39 795.191 1103.27 795.55C1107.98 796.456 1112.64 797.362 1117.25 798.268V798.287C1117.52 798.324 1117.79 798.381 1118.06 798.438C1121.42 799.098 1124.77 799.759 1128.09 800.438C1135.92 802.023 1143.62 803.621 1151.2 805.232C1156.22 806.326 1161.2 807.402 1166.1 808.497C1173.45 810.157 1180.65 811.818 1187.65 813.479C1189.38 813.894 1191.12 814.309 1192.83 814.706C1197.95 815.951 1202.98 817.191 1207.91 818.424C1211.81 819.405 1215.62 820.405 1219.37 821.405C1223.13 822.406 1226.82 823.406 1230.43 824.406C1232.77 825.048 1235.07 825.708 1237.33 826.35C1240.65 827.294 1243.87 828.237 1247.05 829.2C1248.02 829.483 1248.97 829.785 1249.93 830.068C1251.71 830.596 1253.44 831.144 1255.15 831.691C1256.29 832.031 1257.42 832.389 1258.54 832.767C1259.64 833.107 1260.76 833.465 1261.83 833.824C1262.93 834.163 1264.01 834.522 1265.08 834.899C1265.98 835.183 1266.86 835.484 1267.72 835.786C1269.45 836.371 1271.18 836.956 1272.86 837.56C1273.69 837.862 1274.52 838.146 1275.35 838.447L1277.26 839.127C1277.52 839.24 1277.79 839.334 1278.06 839.429C1280.14 840.184 1282.14 840.939 1284.09 841.694C1285.92 842.411 1287.7 843.128 1289.41 843.826C1291.43 844.656 1293.36 845.468 1295.22 846.298C1295.58 846.449 1295.95 846.619 1296.31 846.77C1297.56 847.318 1298.75 847.884 1299.95 848.431C1302.29 849.544 1304.51 850.639 1306.59 851.734C1308.64 852.828 1310.54 853.904 1312.32 854.98C1312.32 854.999 1312.32 854.999 1312.35 854.999C1313.2 855.527 1314.03 856.055 1314.81 856.565C1316.08 857.414 1317.25 858.226 1318.32 859.056C1318.68 859.313 1319.03 859.583 1319.35 859.868C1319.49 859.959 1319.62 860.06 1319.74 860.17C1320.25 860.604 1320.77 861.038 1321.25 861.472C1321.84 862 1322.38 862.529 1322.89 863.057C1323.13 863.321 1323.4 863.586 1323.62 863.85C1323.91 864.171 1324.21 864.51 1324.45 864.831C1324.67 865.095 1324.86 865.379 1325.06 865.643C1325.58 866.323 1326.02 867.037 1326.38 867.775C1326.64 868.278 1326.86 868.796 1327.04 869.323C1327.22 869.824 1327.36 870.335 1327.45 870.852V870.852Z" fill="black"/>
</g>
<defs>
<clipPath id="clip0_1_4">
<rect width="1920" height="1080" fill="white"/>
</clipPath>
</defs>
</svg>
